<svg width="210mm" height="297mm" viewBox="0 0 100 141.3" version="1.1" xmlns="http://www.w3.org/2000/svg"><title>Airfoil plot</title><g transform="translate(5,17)"><g transform="scale(.9,-.9)"><line fill="none" x1="5" x2="5" y1="-9" y2="12" stroke-width="0.05" stroke="green" /><line fill="none" x1="10" x2="10" y1="-9" y2="12" stroke-width="0.1" stroke="darkgreen" /><line fill="none" x1="15" x2="15" y1="-9" y2="12" stroke-width="0.05" stroke="green" /><line fill="none" x1="20" x2="20" y1="-9" y2="12" stroke-width="0.1" stroke="darkgreen" /><line fill="none" x1="25" x2="25" y1="-9" y2="12" stroke-width="0.05" stroke="green" /><line fill="none" x1="30" x2="30" y1="-9" y2="12" stroke-width="0.1" stroke="darkgreen" /><line fill="none" x1="35" x2="35" y1="-9" y2="12" stroke-width="0.05" stroke="green" /><line fill="none" x1="40" x2="40" y1="-9" y2="12" stroke-width="0.1" stroke="darkgreen" /><line fill="none" x1="45" x2="45" y1="-9" y2="12" stroke-width="0.05" stroke="green" /><line fill="none" x1="50" x2="50" y1="-9" y2="12" stroke-width="0.1" stroke="darkgreen" /><line fill="none" x1="55" x2="55" y1="-9" y2="12" stroke-width="0.05" stroke="green" /><line fill="none" x1="60" x2="60" y1="-9" y2="12" stroke-width="0.1" stroke="darkgreen" /><line fill="none" x1="65" x2="65" y1="-9" y2="12" stroke-width="0.05" stroke="green" /><line fill="none" x1="70" x2="70" y1="-9" y2="12" stroke-width="0.1" stroke="darkgreen" /><line fill="none" x1="75" x2="75" y1="-9" y2="12" stroke-width="0.05" stroke="green" /><line fill="none" x1="80" x2="80" y1="-9" y2="12" stroke-width="0.1" stroke="darkgreen" /><line fill="none" x1="85" x2="85" y1="-9" y2="12" stroke-width="0.05" stroke="green" /><line fill="none" x1="90" x2="90" y1="-9" y2="12" stroke-width="0.1" stroke="darkgreen" /><line fill="none" x1="95" x2="95" y1="-9" y2="12" stroke-width="0.05" stroke="green" /><line fill="none" x1="100" x2="100" y1="-9" y2="12" stroke-width="0.1" stroke="darkgreen" /><line fill="none" x1="-1" x2="101" y1="1" y2="1" stroke-width="0.05" stroke="green" /><line fill="none" x1="-1" x2="101" y1="2" y2="2" stroke-width="0.05" stroke="green" /><line fill="none" x1="-1" x2="101" y1="3" y2="3" stroke-width="0.05" stroke="green" /><line fill="none" x1="-1" x2="101" y1="4" y2="4" stroke-width="0.05" stroke="green" /><line fill="none" x1="-1" x2="101" y1="5" y2="5" stroke-width="0.1" stroke="darkgreen" /><line fill="none" x1="-1" x2="101" y1="6" y2="6" stroke-width="0.05" stroke="green" /><line fill="none" x1="-1" x2="101" y1="7" y2="7" stroke-width="0.05" stroke="green" /><line fill="none" x1="-1" x2="101" y1="8" y2="8" stroke-width="0.05" stroke="green" /><line fill="none" x1="-1" x2="101" y1="9" y2="9" stroke-width="0.05" stroke="green" /><line fill="none" x1="-1" x2="101" y1="10" y2="10" stroke-width="0.1" stroke="darkgreen" /><line fill="none" x1="-1" x2="101" y1="11" y2="11" stroke-width="0.05" stroke="green" /><line fill="none" x1="-1" x2="101" y1="12" y2="12" stroke-width="0.05" stroke="green" /><line fill="none" x1="-1" x2="101" y1="-1" y2="-1" stroke-width="0.05" stroke="green" /><line fill="none" x1="-1" x2="101" y1="-2" y2="-2" stroke-width="0.05" stroke="green" /><line fill="none" x1="-1" x2="101" y1="-3" y2="-3" stroke-width="0.05" stroke="green" /><line fill="none" x1="-1" x2="101" y1="-4" y2="-4" stroke-width="0.05" stroke="green" /><line fill="none" x1="-1" x2="101" y1="-5" y2="-5" stroke-width="0.1" stroke="darkgreen" /><line fill="none" x1="-1" x2="101" y1="-6" y2="-6" stroke-width="0.05" stroke="green" /><line fill="none" x1="-1" x2="101" y1="-7" y2="-7" stroke-width="0.05" stroke="green" /><line fill="none" x1="-1" x2="101" y1="-8" y2="-8" stroke-width="0.05" stroke="green" /><line fill="none" x1="-1" x2="101" y1="-9" y2="-9" stroke-width="0.05" stroke="green" /><line fill="none" stroke="black" x1="-2" x2="102" y1="0" y2="0" stroke-width="0.1" /><line fill="none" stroke="black" x1="0" x2="0" y1="-10" y2="13" stroke-width="0.1" /><path fill="none" stroke="red" d="M 100.00 0.18 L 99.97 0.19 L 99.90 0.20 L 99.77 0.23 L 99.60 0.27 L 99.37 0.33 L 99.10 0.39 L 98.77 0.46 L 98.40 0.55 L 97.97 0.65 L 97.50 0.76 L 96.98 0.87 L 96.42 1.00 L 95.81 1.14 L 95.15 1.29 L 94.44 1.45 L 93.69 1.62 L 92.90 1.80 L 92.06 1.98 L 91.18 2.18 L 90.26 2.38 L 89.30 2.59 L 88.30 2.80 L 87.26 3.02 L 86.19 3.25 L 85.07 3.48 L 83.93 3.72 L 82.74 3.97 L 81.53 4.21 L 80.28 4.46 L 79.00 4.71 L 77.70 4.97 L 76.36 5.22 L 75.00 5.48 L 73.61 5.73 L 72.20 5.99 L 70.77 6.24 L 69.32 6.49 L 67.84 6.74 L 66.35 6.99 L 64.85 7.23 L 63.32 7.46 L 61.79 7.70 L 60.24 7.92 L 58.68 8.14 L 57.12 8.36 L 55.54 8.56 L 53.96 8.76 L 52.38 8.95 L 50.79 9.13 L 49.21 9.30 L 47.62 9.46 L 46.04 9.61 L 44.46 9.75 L 42.88 9.88 L 41.32 10.00 L 39.76 10.11 L 38.21 10.21 L 36.68 10.29 L 35.15 10.37 L 33.65 10.43 L 32.16 10.49 L 30.68 10.53 L 29.23 10.56 L 27.80 10.58 L 26.39 10.59 L 25.00 10.58 L 23.64 10.56 L 22.30 10.52 L 21.00 10.46 L 19.72 10.39 L 18.47 10.29 L 17.26 10.18 L 16.07 10.03 L 14.93 9.86 L 13.81 9.66 L 12.74 9.43 L 11.70 9.17 L 10.70 8.88 L 9.74 8.57 L 8.82 8.22 L 7.94 7.85 L 7.10 7.46 L 6.31 7.05 L 5.56 6.62 L 4.85 6.17 L 4.19 5.71 L 3.58 5.25 L 3.02 4.77 L 2.50 4.30 L 2.03 3.82 L 1.60 3.35 L 1.23 2.89 L 0.90 2.43 L 0.63 1.99 L 0.40 1.56 L 0.23 1.14 L 0.10 0.74 L 0.03 0.36 L 0.00 0.00 L 0.00 0.00 L 0.03 -0.35 L 0.10 -0.68 L 0.23 -1.01 L 0.40 -1.32 L 0.63 -1.62 L 0.90 -1.91 L 1.23 -2.19 L 1.60 -2.46 L 2.03 -2.72 L 2.50 -2.97 L 3.02 -3.21 L 3.58 -3.45 L 4.19 -3.68 L 4.85 -3.91 L 5.56 -4.13 L 6.31 -4.35 L 7.10 -4.57 L 7.94 -4.78 L 8.82 -4.99 L 9.74 -5.20 L 10.70 -5.40 L 11.70 -5.61 L 12.74 -5.80 L 13.81 -6.00 L 14.93 -6.18 L 16.07 -6.36 L 17.26 -6.54 L 18.47 -6.70 L 19.72 -6.84 L 21.00 -6.97 L 22.30 -7.09 L 23.64 -7.19 L 25.00 -7.27 L 26.39 -7.34 L 27.80 -7.39 L 29.23 -7.44 L 30.68 -7.47 L 32.16 -7.49 L 33.65 -7.50 L 35.15 -7.51 L 36.68 -7.50 L 38.21 -7.48 L 39.76 -7.45 L 41.32 -7.41 L 42.88 -7.36 L 44.46 -7.30 L 46.04 -7.23 L 47.62 -7.15 L 49.21 -7.05 L 50.79 -6.95 L 52.38 -6.84 L 53.96 -6.72 L 55.54 -6.60 L 57.12 -6.46 L 58.68 -6.32 L 60.24 -6.17 L 61.79 -6.01 L 63.32 -5.84 L 64.85 -5.67 L 66.35 -5.50 L 67.84 -5.32 L 69.32 -5.14 L 70.77 -4.95 L 72.20 -4.76 L 73.61 -4.57 L 75.00 -4.37 L 76.36 -4.18 L 77.70 -3.98 L 79.00 -3.78 L 80.28 -3.59 L 81.53 -3.40 L 82.74 -3.20 L 83.93 -3.01 L 85.07 -2.83 L 86.19 -2.64 L 87.26 -2.46 L 88.30 -2.28 L 89.30 -2.11 L 90.26 -1.95 L 91.18 -1.79 L 92.06 -1.63 L 92.90 -1.48 L 93.69 -1.34 L 94.44 -1.21 L 95.15 -1.08 L 95.81 -0.96 L 96.42 -0.85 L 96.98 -0.74 L 97.50 -0.65 L 97.97 -0.56 L 98.40 -0.48 L 98.77 -0.41 L 99.10 -0.35 L 99.37 -0.30 L 99.60 -0.26 L 99.77 -0.22 L 99.90 -0.20 L 99.97 -0.18 L 100.00 -0.18 L 100.00 0.18" stroke-width="0.2" /></g></g><g transform="translate(5,26)"><g transform="scale(.9,.9)"><text fill="rgb(48,48,144)" style="font-family:Arial,Helvetica,sans-serif;" x="1" y="2" font-size="1.8">Name: 23018-53</text></g></g><g transform="translate(5,42)"><g transform="scale(.9,-.9)"><line fill="none" x1="5" x2="5" y1="-8" y2="11" stroke-width="0.05" stroke="green" /><line fill="none" x1="10" x2="10" y1="-8" y2="11" stroke-width="0.1" stroke="darkgreen" /><line fill="none" x1="15" x2="15" y1="-8" y2="11" stroke-width="0.05" stroke="green" /><line fill="none" x1="20" x2="20" y1="-8" y2="11" stroke-width="0.1" stroke="darkgreen" /><line fill="none" x1="25" x2="25" y1="-8" y2="11" stroke-width="0.05" stroke="green" /><line fill="none" x1="30" x2="30" y1="-8" y2="11" stroke-width="0.1" stroke="darkgreen" /><line fill="none" x1="35" x2="35" y1="-8" y2="11" stroke-width="0.05" stroke="green" /><line fill="none" x1="40" x2="40" y1="-8" y2="11" stroke-width="0.1" stroke="darkgreen" /><line fill="none" x1="45" x2="45" y1="-8" y2="11" stroke-width="0.05" stroke="green" /><line fill="none" x1="50" x2="50" y1="-8" y2="11" stroke-width="0.1" stroke="darkgreen" /><line fill="none" x1="55" x2="55" y1="-8" y2="11" stroke-width="0.05" stroke="green" /><line fill="none" x1="60" x2="60" y1="-8" y2="11" stroke-width="0.1" stroke="darkgreen" /><line fill="none" x1="65" x2="65" y1="-8" y2="11" stroke-width="0.05" stroke="green" /><line fill="none" x1="70" x2="70" y1="-8" y2="11" stroke-width="0.1" stroke="darkgreen" /><line fill="none" x1="75" x2="75" y1="-8" y2="11" stroke-width="0.05" stroke="green" /><line fill="none" x1="80" x2="80" y1="-8" y2="11" stroke-width="0.1" stroke="darkgreen" /><line fill="none" x1="85" x2="85" y1="-8" y2="11" stroke-width="0.05" stroke="green" /><line fill="none" x1="90" x2="90" y1="-8" y2="11" stroke-width="0.1" stroke="darkgreen" /><line fill="none" x1="95" x2="95" y1="-8" y2="11" stroke-width="0.05" stroke="green" /><line fill="none" x1="100" x2="100" y1="-8" y2="11" stroke-width="0.1" stroke="darkgreen" /><line fill="none" x1="-1" x2="101" y1="1" y2="1" stroke-width="0.05" stroke="green" /><line fill="none" x1="-1" x2="101" y1="2" y2="2" stroke-width="0.05" stroke="green" /><line fill="none" x1="-1" x2="101" y1="3" y2="3" stroke-width="0.05" stroke="green" /><line fill="none" x1="-1" x2="101" y1="4" y2="4" stroke-width="0.05" stroke="green" /><line fill="none" x1="-1" x2="101" y1="5" y2="5" stroke-width="0.1" stroke="darkgreen" /><line fill="none" x1="-1" x2="101" y1="6" y2="6" stroke-width="0.05" stroke="green" /><line fill="none" x1="-1" x2="101" y1="7" y2="7" stroke-width="0.05" stroke="green" /><line fill="none" x1="-1" x2="101" y1="8" y2="8" stroke-width="0.05" stroke="green" /><line fill="none" x1="-1" x2="101" y1="9" y2="9" stroke-width="0.05" stroke="green" /><line fill="none" x1="-1" x2="101" y1="10" y2="10" stroke-width="0.1" stroke="darkgreen" /><line fill="none" x1="-1" x2="101" y1="11" y2="11" stroke-width="0.05" stroke="green" /><line fill="none" x1="-1" x2="101" y1="-1" y2="-1" stroke-width="0.05" stroke="green" /><line fill="none" x1="-1" x2="101" y1="-2" y2="-2" stroke-width="0.05" stroke="green" /><line fill="none" x1="-1" x2="101" y1="-3" y2="-3" stroke-width="0.05" stroke="green" /><line fill="none" x1="-1" x2="101" y1="-4" y2="-4" stroke-width="0.05" stroke="green" /><line fill="none" x1="-1" x2="101" y1="-5" y2="-5" stroke-width="0.1" stroke="darkgreen" /><line fill="none" x1="-1" x2="101" y1="-6" y2="-6" stroke-width="0.05" stroke="green" /><line fill="none" x1="-1" x2="101" y1="-7" y2="-7" stroke-width="0.05" stroke="green" /><line fill="none" x1="-1" x2="101" y1="-8" y2="-8" stroke-width="0.05" stroke="green" /><line fill="none" stroke="black" x1="-2" x2="102" y1="0" y2="0" stroke-width="0.1" /><line fill="none" stroke="black" x1="0" x2="0" y1="-9" y2="12" stroke-width="0.1" /><path fill="none" stroke="red" d="M 100.00 0.16 L 99.97 0.17 L 99.90 0.18 L 99.77 0.21 L 99.60 0.24 L 99.37 0.29 L 99.10 0.35 L 98.77 0.42 L 98.40 0.49 L 97.97 0.58 L 97.50 0.68 L 96.98 0.79 L 96.42 0.90 L 95.81 1.03 L 95.15 1.16 L 94.44 1.30 L 93.69 1.45 L 92.90 1.61 L 92.06 1.78 L 91.18 1.96 L 90.26 2.14 L 89.30 2.32 L 88.30 2.52 L 87.26 2.72 L 86.19 2.92 L 85.07 3.13 L 83.93 3.35 L 82.74 3.57 L 81.53 3.79 L 80.28 4.01 L 79.00 4.24 L 77.70 4.47 L 76.36 4.70 L 75.00 4.93 L 73.61 5.16 L 72.20 5.39 L 70.77 5.62 L 69.32 5.85 L 67.84 6.07 L 66.35 6.29 L 64.85 6.51 L 63.32 6.72 L 61.79 6.93 L 60.24 7.14 L 58.68 7.34 L 57.12 7.53 L 55.54 7.72 L 53.96 7.90 L 52.38 8.07 L 50.79 8.23 L 49.21 8.39 L 47.62 8.54 L 46.04 8.68 L 44.46 8.80 L 42.88 8.92 L 41.32 9.03 L 39.76 9.13 L 38.21 9.23 L 36.68 9.31 L 35.15 9.38 L 33.65 9.44 L 32.16 9.49 L 30.68 9.53 L 29.23 9.56 L 27.80 9.58 L 26.39 9.59 L 25.00 9.59 L 23.64 9.57 L 22.30 9.54 L 21.00 9.49 L 19.72 9.43 L 18.47 9.35 L 17.26 9.25 L 16.07 9.12 L 14.93 8.97 L 13.81 8.79 L 12.74 8.59 L 11.70 8.35 L 10.70 8.09 L 9.74 7.80 L 8.82 7.49 L 7.94 7.15 L 7.10 6.79 L 6.31 6.41 L 5.56 6.02 L 4.85 5.61 L 4.19 5.19 L 3.58 4.76 L 3.02 4.33 L 2.50 3.89 L 2.03 3.46 L 1.60 3.03 L 1.23 2.61 L 0.90 2.19 L 0.63 1.79 L 0.40 1.40 L 0.23 1.02 L 0.10 0.66 L 0.03 0.32 L 0.00 0.00 L 0.00 0.00 L 0.03 -0.31 L 0.10 -0.60 L 0.23 -0.89 L 0.40 -1.16 L 0.63 -1.42 L 0.90 -1.67 L 1.23 -1.90 L 1.60 -2.13 L 2.03 -2.35 L 2.50 -2.56 L 3.02 -2.77 L 3.58 -2.97 L 4.19 -3.16 L 4.85 -3.35 L 5.56 -3.54 L 6.31 -3.72 L 7.10 -3.90 L 7.94 -4.08 L 8.82 -4.26 L 9.74 -4.43 L 10.70 -4.61 L 11.70 -4.78 L 12.74 -4.96 L 13.81 -5.13 L 14.93 -5.29 L 16.07 -5.45 L 17.26 -5.61 L 18.47 -5.75 L 19.72 -5.89 L 21.00 -6.01 L 22.30 -6.11 L 23.64 -6.20 L 25.00 -6.28 L 26.39 -6.34 L 27.80 -6.39 L 29.23 -6.44 L 30.68 -6.47 L 32.16 -6.49 L 33.65 -6.51 L 35.15 -6.51 L 36.68 -6.51 L 38.21 -6.50 L 39.76 -6.47 L 41.32 -6.44 L 42.88 -6.40 L 44.46 -6.35 L 46.04 -6.29 L 47.62 -6.22 L 49.21 -6.15 L 50.79 -6.06 L 52.38 -5.97 L 53.96 -5.86 L 55.54 -5.75 L 57.12 -5.64 L 58.68 -5.51 L 60.24 -5.38 L 61.79 -5.25 L 63.32 -5.11 L 64.85 -4.96 L 66.35 -4.81 L 67.84 -4.65 L 69.32 -4.49 L 70.77 -4.33 L 72.20 -4.16 L 73.61 -3.99 L 75.00 -3.82 L 76.36 -3.65 L 77.70 -3.48 L 79.00 -3.31 L 80.28 -3.14 L 81.53 -2.97 L 82.74 -2.80 L 83.93 -2.64 L 85.07 -2.47 L 86.19 -2.31 L 87.26 -2.16 L 88.30 -2.00 L 89.30 -1.85 L 90.26 -1.71 L 91.18 -1.57 L 92.06 -1.43 L 92.90 -1.30 L 93.69 -1.18 L 94.44 -1.06 L 95.15 -0.95 L 95.81 -0.84 L 96.42 -0.74 L 96.98 -0.65 L 97.50 -0.57 L 97.97 -0.49 L 98.40 -0.42 L 98.77 -0.36 L 99.10 -0.31 L 99.37 -0.26 L 99.60 -0.23 L 99.77 -0.20 L 99.90 -0.18 L 99.97 -0.16 L 100.00 -0.16 L 100.00 0.16" stroke-width="0.2" /></g></g><g transform="translate(5,50)"><g transform="scale(.9,.9)"><text fill="rgb(48,48,144)" style="font-family:Arial,Helvetica,sans-serif;" x="1" y="2" font-size="1.8">Name: 23016-53</text></g></g><g transform="translate(5,64)"><g transform="scale(.9,-.9)"><line fill="none" x1="5" x2="5" y1="-6" y2="9" stroke-width="0.05" stroke="green" /><line fill="none" x1="10" x2="10" y1="-6" y2="9" stroke-width="0.1" stroke="darkgreen" /><line fill="none" x1="15" x2="15" y1="-6" y2="9" stroke-width="0.05" stroke="green" /><line fill="none" x1="20" x2="20" y1="-6" y2="9" stroke-width="0.1" stroke="darkgreen" /><line fill="none" x1="25" x2="25" y1="-6" y2="9" stroke-width="0.05" stroke="green" /><line fill="none" x1="30" x2="30" y1="-6" y2="9" stroke-width="0.1" stroke="darkgreen" /><line fill="none" x1="35" x2="35" y1="-6" y2="9" stroke-width="0.05" stroke="green" /><line fill="none" x1="40" x2="40" y1="-6" y2="9" stroke-width="0.1" stroke="darkgreen" /><line fill="none" x1="45" x2="45" y1="-6" y2="9" stroke-width="0.05" stroke="green" /><line fill="none" x1="50" x2="50" y1="-6" y2="9" stroke-width="0.1" stroke="darkgreen" /><line fill="none" x1="55" x2="55" y1="-6" y2="9" stroke-width="0.05" stroke="green" /><line fill="none" x1="60" x2="60" y1="-6" y2="9" stroke-width="0.1" stroke="darkgreen" /><line fill="none" x1="65" x2="65" y1="-6" y2="9" stroke-width="0.05" stroke="green" /><line fill="none" x1="70" x2="70" y1="-6" y2="9" stroke-width="0.1" stroke="darkgreen" /><line fill="none" x1="75" x2="75" y1="-6" y2="9" stroke-width="0.05" stroke="green" /><line fill="none" x1="80" x2="80" y1="-6" y2="9" stroke-width="0.1" stroke="darkgreen" /><line fill="none" x1="85" x2="85" y1="-6" y2="9" stroke-width="0.05" stroke="green" /><line fill="none" x1="90" x2="90" y1="-6" y2="9" stroke-width="0.1" stroke="darkgreen" /><line fill="none" x1="95" x2="95" y1="-6" y2="9" stroke-width="0.05" stroke="green" /><line fill="none" x1="100" x2="100" y1="-6" y2="9" stroke-width="0.1" stroke="darkgreen" /><line fill="none" x1="-1" x2="101" y1="1" y2="1" stroke-width="0.05" stroke="green" /><line fill="none" x1="-1" x2="101" y1="2" y2="2" stroke-width="0.05" stroke="green" /><line fill="none" x1="-1" x2="101" y1="3" y2="3" stroke-width="0.05" stroke="green" /><line fill="none" x1="-1" x2="101" y1="4" y2="4" stroke-width="0.05" stroke="green" /><line fill="none" x1="-1" x2="101" y1="5" y2="5" stroke-width="0.1" stroke="darkgreen" /><line fill="none" x1="-1" x2="101" y1="6" y2="6" stroke-width="0.05" stroke="green" /><line fill="none" x1="-1" x2="101" y1="7" y2="7" stroke-width="0.05" stroke="green" /><line fill="none" x1="-1" x2="101" y1="8" y2="8" stroke-width="0.05" stroke="green" /><line fill="none" x1="-1" x2="101" y1="9" y2="9" stroke-width="0.05" stroke="green" /><line fill="none" x1="-1" x2="101" y1="-1" y2="-1" stroke-width="0.05" stroke="green" /><line fill="none" x1="-1" x2="101" y1="-2" y2="-2" stroke-width="0.05" stroke="green" /><line fill="none" x1="-1" x2="101" y1="-3" y2="-3" stroke-width="0.05" stroke="green" /><line fill="none" x1="-1" x2="101" y1="-4" y2="-4" stroke-width="0.05" stroke="green" /><line fill="none" x1="-1" x2="101" y1="-5" y2="-5" stroke-width="0.1" stroke="darkgreen" /><line fill="none" x1="-1" x2="101" y1="-6" y2="-6" stroke-width="0.05" stroke="green" /><line fill="none" stroke="black" x1="-2" x2="102" y1="0" y2="0" stroke-width="0.1" /><line fill="none" stroke="black" x1="0" x2="0" y1="-7" y2="10" stroke-width="0.1" /><path fill="none" stroke="red" d="M 100.00 0.12 L 99.97 0.12 L 99.90 0.14 L 99.77 0.16 L 99.60 0.19 L 99.37 0.22 L 99.10 0.27 L 98.77 0.32 L 98.40 0.38 L 97.97 0.45 L 97.50 0.52 L 96.98 0.61 L 96.42 0.70 L 95.81 0.79 L 95.15 0.90 L 94.44 1.01 L 93.69 1.13 L 92.90 1.25 L 92.06 1.38 L 91.18 1.52 L 90.26 1.66 L 89.30 1.80 L 88.30 1.95 L 87.26 2.11 L 86.19 2.27 L 85.07 2.43 L 83.93 2.60 L 82.74 2.77 L 81.53 2.94 L 80.28 3.12 L 79.00 3.30 L 77.70 3.47 L 76.36 3.65 L 75.00 3.83 L 73.61 4.02 L 72.20 4.20 L 70.77 4.37 L 69.32 4.55 L 67.84 4.73 L 66.35 4.90 L 64.85 5.08 L 63.32 5.25 L 61.79 5.41 L 60.24 5.57 L 58.68 5.73 L 57.12 5.89 L 55.54 6.03 L 53.96 6.18 L 52.38 6.32 L 50.79 6.45 L 49.21 6.57 L 47.62 6.69 L 46.04 6.80 L 44.46 6.91 L 42.88 7.01 L 41.32 7.10 L 39.76 7.18 L 38.21 7.26 L 36.68 7.33 L 35.15 7.39 L 33.65 7.44 L 32.16 7.49 L 30.68 7.53 L 29.23 7.56 L 27.80 7.59 L 26.39 7.60 L 25.00 7.61 L 23.64 7.60 L 22.30 7.59 L 21.00 7.56 L 19.72 7.52 L 18.47 7.46 L 17.26 7.39 L 16.07 7.30 L 14.93 7.19 L 13.81 7.05 L 12.74 6.89 L 11.70 6.71 L 10.70 6.50 L 9.74 6.27 L 8.82 6.02 L 7.94 5.75 L 7.10 5.46 L 6.31 5.15 L 5.56 4.83 L 4.85 4.49 L 4.19 4.15 L 3.58 3.80 L 3.02 3.44 L 2.50 3.09 L 2.03 2.73 L 1.60 2.38 L 1.23 2.04 L 0.90 1.71 L 0.63 1.39 L 0.40 1.08 L 0.23 0.78 L 0.10 0.51 L 0.03 0.24 L 0.00 0.00 L 0.00 0.00 L 0.03 -0.23 L 0.10 -0.44 L 0.23 -0.65 L 0.40 -0.84 L 0.63 -1.02 L 0.90 -1.18 L 1.23 -1.34 L 1.60 -1.49 L 2.03 -1.63 L 2.50 -1.76 L 3.02 -1.88 L 3.58 -2.00 L 4.19 -2.12 L 4.85 -2.23 L 5.56 -2.34 L 6.31 -2.45 L 7.10 -2.56 L 7.94 -2.68 L 8.82 -2.79 L 9.74 -2.90 L 10.70 -3.02 L 11.70 -3.14 L 12.74 -3.26 L 13.81 -3.39 L 14.93 -3.51 L 16.07 -3.63 L 17.26 -3.75 L 18.47 -3.86 L 19.72 -3.97 L 21.00 -4.07 L 22.30 -4.15 L 23.64 -4.23 L 25.00 -4.29 L 26.39 -4.35 L 27.80 -4.40 L 29.23 -4.44 L 30.68 -4.47 L 32.16 -4.49 L 33.65 -4.51 L 35.15 -4.53 L 36.68 -4.53 L 38.21 -4.53 L 39.76 -4.52 L 41.32 -4.51 L 42.88 -4.49 L 44.46 -4.46 L 46.04 -4.42 L 47.62 -4.38 L 49.21 -4.33 L 50.79 -4.27 L 52.38 -4.21 L 53.96 -4.14 L 55.54 -4.07 L 57.12 -3.99 L 58.68 -3.91 L 60.24 -3.82 L 61.79 -3.72 L 63.32 -3.63 L 64.85 -3.52 L 66.35 -3.42 L 67.84 -3.31 L 69.32 -3.20 L 70.77 -3.08 L 72.20 -2.97 L 73.61 -2.85 L 75.00 -2.73 L 76.36 -2.61 L 77.70 -2.49 L 79.00 -2.37 L 80.28 -2.25 L 81.53 -2.13 L 82.74 -2.01 L 83.93 -1.89 L 85.07 -1.77 L 86.19 -1.66 L 87.26 -1.55 L 88.30 -1.44 L 89.30 -1.33 L 90.26 -1.23 L 91.18 -1.13 L 92.06 -1.03 L 92.90 -0.94 L 93.69 -0.85 L 94.44 -0.76 L 95.15 -0.68 L 95.81 -0.61 L 96.42 -0.54 L 96.98 -0.47 L 97.50 -0.41 L 97.97 -0.36 L 98.40 -0.31 L 98.77 -0.26 L 99.10 -0.23 L 99.37 -0.19 L 99.60 -0.17 L 99.77 -0.15 L 99.90 -0.13 L 99.97 -0.12 L 100.00 -0.12 L 100.00 0.12" stroke-width="0.2" /></g></g><g transform="translate(5,70)"><g transform="scale(.9,.9)"><text fill="rgb(48,48,144)" style="font-family:Arial,Helvetica,sans-serif;" x="1" y="2" font-size="1.8">Name: 23012-53</text></g></g></svg>